<svg id="visual" viewBox="0 0 900 600" width="900" height="600" xmlns="http://www.w3.org/2000/svg" xmlns:xlink="http://www.w3.org/1999/xlink" version="1.1"><rect x="0" y="0" width="900" height="600" fill="#000000"></rect><path d="M0 369L10.7 380.7C21.3 392.3 42.7 415.7 64.2 443.5C85.7 471.3 107.3 503.7 128.8 501.8C150.3 500 171.7 464 193 456.3C214.3 448.7 235.7 469.3 257 473C278.3 476.7 299.7 463.3 321.2 451.7C342.7 440 364.3 430 385.8 446.7C407.3 463.3 428.7 506.7 450 517.5C471.3 528.3 492.7 506.7 514.2 479.2C535.7 451.7 557.3 418.3 578.8 429.3C600.3 440.3 621.7 495.7 643 517.3C664.3 539 685.7 527 707 530C728.3 533 749.7 551 771.2 541.5C792.7 532 814.3 495 835.8 481.5C857.3 468 878.7 478 889.3 483L900 488" fill="none" stroke-linecap="round" stroke-linejoin="miter" stroke="#ff00a2" stroke-width="20"></path></svg>